<svg width="45" height="43" viewBox="0 0 45 43" fill="none" xmlns="http://www.w3.org/2000/svg">
<path d="M5.17041 24.145C5.44131 24.001 5.46808 24.0443 5.52979 24.3257C5.6224 24.7503 5.49171 25.0015 5.11572 25.2368C4.53455 25.6001 4.05022 26.0933 3.61084 26.6255C2.6846 27.7479 2.31553 29.0468 2.36279 30.4829C2.36674 30.6046 2.41498 30.7309 2.32178 30.9028C2.12616 30.3431 1.99005 29.8124 1.87451 29.2798C1.77916 28.8402 1.68843 28.3989 1.6333 27.9497C1.59435 27.6298 1.6492 27.3441 1.78662 27.064C2.18267 26.2562 2.81631 25.6604 3.51904 25.1274C4.03233 24.738 4.60417 24.4452 5.17041 24.145ZM8.23584 24.5093C8.49919 24.4205 8.69806 24.56 8.68896 24.7944C8.69072 24.9266 8.61145 25.0146 8.51123 25.0776C8.04387 25.3717 7.57937 25.6711 7.10107 25.9468C6.8784 26.0749 6.68172 26.0175 6.55615 25.8481C6.43679 25.6867 6.46598 25.4809 6.64404 25.2993C6.70437 25.2378 6.77813 25.1883 6.85107 25.1411C7.28038 24.861 7.75359 24.6721 8.23584 24.5093ZM17.7544 20.4868C18.0196 20.482 18.1897 20.6249 18.3101 20.8433C18.4399 21.079 18.3744 21.2966 18.228 21.4956C18.1336 21.6242 18.0261 21.7477 17.853 21.7759L17.8511 21.7749L17.8521 21.7759C17.5511 21.8516 17.2434 21.82 16.939 21.8208C15.2051 21.8252 13.4707 21.8217 11.7368 21.8208C11.5911 21.9131 11.4252 21.88 11.2681 21.8892C9.3299 22.0069 7.41937 22.2782 5.58447 22.9429C4.20385 23.443 2.94613 24.1632 1.83154 25.1255C1.80095 25.1521 1.76171 25.1693 1.72412 25.1929C1.56843 24.52 1.73441 24.0391 2.26318 23.6479C3.03035 23.0812 3.88014 22.665 4.76416 22.3188C6.38508 21.6835 8.07418 21.3282 9.79443 21.0923C11.4677 20.863 13.1462 20.7218 14.8325 20.6382C15.6753 20.5966 16.5172 20.5256 17.3608 20.4897C17.4916 20.4841 17.6231 20.4894 17.7544 20.4868ZM27.1899 22.6763C27.504 22.6859 27.7199 22.8604 27.7935 23.146C27.8552 23.3854 27.7347 23.6709 27.5015 23.8228C27.3658 23.9112 27.2122 23.9686 27.0542 23.9888C26.4774 24.0619 25.9032 24.1554 25.3198 24.1772C24.0395 24.2254 22.7591 24.2366 21.481 24.1548C20.495 24.0918 19.512 23.9799 18.4468 23.8823L18.5464 23.7612C18.7807 23.4897 19.0321 23.2988 19.2495 23.0757C19.3536 22.9685 19.5005 23.0244 19.6265 23.0337C20.6146 23.1068 21.6053 23.1288 22.5952 23.1147C23.9927 23.095 25.3797 22.9577 26.7554 22.7065C26.8976 22.6807 27.0455 22.6719 27.1899 22.6763ZM14.2983 22.7456C14.6454 22.7478 14.8843 22.9057 14.9272 23.1626C14.9732 23.4379 14.7692 23.6947 14.4331 23.7866C14.4191 23.7906 14.4055 23.7975 14.3911 23.7983C13.4473 23.8649 12.5082 23.976 11.6265 24.0933C11.2521 24.095 11.0737 23.9892 11.022 23.7671C10.9673 23.5334 11.0906 23.2664 11.3208 23.1382C11.3962 23.0964 11.4813 23.0582 11.5649 23.0493C12.462 22.9561 13.3446 22.7283 14.2544 22.7466C14.2688 22.7466 14.2839 22.7456 14.2983 22.7456ZM35.3296 20.3872C35.5864 20.3701 35.7868 20.4632 35.9194 20.6851C36.0398 20.8855 36.0107 21.1877 35.8511 21.3794C35.6708 21.596 35.4355 21.7476 35.1948 21.8833C33.8557 22.636 32.4383 23.2022 30.9731 23.6587C30.4386 23.8248 29.9069 23.5866 29.6841 23.2651C29.5554 23.0791 29.4702 22.8841 29.4829 22.6509L29.4819 22.6519C29.5222 22.238 29.6709 21.8888 30.0894 21.7241C30.3869 21.6073 30.6905 21.5035 30.9946 21.4028C31.2463 21.3197 31.4749 21.3315 31.6675 21.5591C31.9077 21.8425 32.2132 21.8538 32.5444 21.73C33.3662 21.4232 34.147 21.0331 34.8931 20.5728C35.0299 20.4884 35.1614 20.3987 35.3296 20.3872ZM29.1392 19.1274C28.7314 19.617 28.3167 20.0622 27.8901 20.4966C27.7676 20.6213 27.6265 20.735 27.5337 20.8794C27.4098 21.0719 27.2323 21.147 27.0288 21.1851C25.5273 21.4647 24.0188 21.6872 22.4897 21.7397C22.3296 21.7454 22.1694 21.7512 22.0093 21.7446C21.592 21.7271 21.2929 21.4304 21.2817 21.0298C21.273 20.7055 21.5763 20.3838 21.9487 20.3335C22.0633 20.3182 22.181 20.3266 22.2974 20.3257C23.3033 20.3169 24.2927 20.1549 25.2847 20.0083C26.5672 19.8188 27.8138 19.4854 29.0474 19.0981C29.0582 19.0947 29.0745 19.1058 29.1392 19.1274ZM33.6714 16.063C34.0739 15.7258 34.6472 15.8081 34.9536 16.0757C35.3549 16.4266 35.4792 16.9563 35.2495 17.4136C35.19 17.5321 35.1123 17.6387 35.0083 17.7192C34.3295 18.2444 33.6348 18.7497 32.8804 19.1606C32.3977 19.4234 31.8447 19.2563 31.5454 18.7964C31.4361 18.6285 31.4062 18.5157 31.4058 18.2241H31.4048C31.3798 17.9585 31.4968 17.7183 31.7183 17.5249C31.7947 17.458 31.8712 17.3903 31.9546 17.3335C32.5441 16.9335 33.1252 16.5203 33.6714 16.063Z" fill="#67BFFF"/>
<path d="M15.2734 38.1499C17.5149 37.3276 19.7892 36.8907 22.1562 37.5952C19.8969 38.1982 17.6063 38.44 15.2734 38.1499ZM5.63965 25.8989C5.72622 26.3031 5.75765 26.6871 5.87793 27.0493C5.90318 27.1272 5.83004 27.1766 5.78418 27.2319C4.67351 28.5669 4.53239 30.048 5.18555 31.6118C5.64112 32.7026 6.42295 33.5499 7.39648 34.2075C8.86835 35.2019 10.4982 35.8026 12.25 36.0757C13.2034 36.224 14.1654 36.2504 15.1279 36.2329C15.3 36.1767 15.4818 36.2376 15.6543 36.1899C15.798 36.145 15.9476 36.1451 16.0957 36.146C16.1777 36.1033 16.2772 36.1426 16.3584 36.0942L16.707 36.0601C16.9051 35.956 17.1282 35.965 17.3398 35.9253L18.8896 35.5278H18.8926C20.0323 35.0917 21.1893 34.7047 22.3447 34.313C23.3704 33.9651 24.4203 33.7302 25.498 33.6479C26.3793 33.581 27.2436 33.7172 28.0771 34.0112C28.4727 34.1508 28.8559 34.3251 29.3184 34.5142C29.0312 34.7008 28.8092 34.8522 28.5811 34.9917C27.1336 35.8755 25.5986 36.5741 24.002 37.1421C23.85 37.1961 23.7223 37.1745 23.583 37.1274C22.3126 36.6955 21.0087 36.516 19.667 36.5952C19.1123 36.6281 18.5744 36.7585 18.0293 36.8442L18.0303 36.8433C16.7886 37.1264 15.608 37.6118 14.3877 37.9653C14.1574 38.0321 13.9425 38.043 13.7061 38.0015C11.6823 37.6461 9.74613 37.0278 7.93457 36.0542C6.55799 35.3142 5.35229 34.3672 4.45215 33.062C3.1793 31.2159 3.23671 29.1598 4.40918 27.3188C4.73813 26.8023 5.13845 26.339 5.63965 25.8989ZM6.1543 28.3413C6.29448 28.3929 6.28777 28.5221 6.33008 28.6196C7.07405 30.3375 8.35887 31.2982 10.2422 31.4575C11.1976 31.5383 12.0875 31.2669 12.9844 31.0259C13.898 30.78 14.8082 30.5229 15.7568 30.4419C16.6393 30.3667 17.4993 30.4709 18.3389 30.7456C18.7025 30.8644 19.0639 30.9912 19.4258 31.1147H19.4277C20.0925 31.3221 20.7346 31.6052 21.4238 31.7339C21.6666 31.7794 21.9112 31.8181 22.1553 31.8579C22.6942 31.9449 23.1885 31.799 23.6758 31.5825C24.6724 31.1402 25.668 30.6907 26.7412 30.4565C28.4924 30.075 30.2324 30.0671 31.9561 30.6118C32.0531 30.6424 32.1497 30.6768 32.2441 30.7144C32.2812 30.7293 32.3124 30.7585 32.3887 30.8091C31.8493 30.9963 31.3459 31.1777 30.8389 31.3452C29.9416 31.641 29.039 31.9228 28.1426 32.2212C27.7008 32.3682 27.2642 32.5372 26.9111 32.8569C26.8146 32.9445 26.7052 32.9544 26.5869 32.9487C24.6133 32.8486 22.7527 33.3477 20.9209 34.0103C20.1694 34.2819 19.41 34.5335 18.6357 34.7339L18.6367 34.7349C17.7958 35.0288 16.9245 35.212 16.0508 35.3599C14.7807 35.5746 13.4964 35.5989 12.2236 35.3823C10.717 35.1259 9.28501 34.6556 8.04004 33.7271C7.7259 33.493 7.45877 33.21 7.2002 32.9077C7.70543 33.0005 8.19243 33.126 8.68848 33.2144C9.89529 33.4296 11.0924 33.3926 12.29 33.1489C13.2174 32.9603 14.1227 32.6836 15.0439 32.4731C16.1519 32.2198 17.2598 32.1423 18.373 32.4302H18.3721C18.9596 32.5667 19.5263 32.7708 20.0938 32.9712C20.2056 33.0105 20.3147 33.0271 20.4287 32.9644C20.6 32.8704 20.7781 32.7875 21.0127 32.6704C20.1534 32.3672 19.3525 32.0849 18.5518 31.8022V31.8013C18.1541 31.7357 17.7586 31.6457 17.3584 31.6099C16.2987 31.5154 15.2697 31.7065 14.2559 32.0005C13.3199 32.2718 12.3875 32.5591 11.4219 32.7153C9.94643 32.9541 8.52019 32.7674 7.13574 32.2271C6.19911 31.8612 5.75905 31.1546 5.75098 30.1616C5.74573 29.5255 5.87268 28.9201 6.1543 28.3413ZM39.3828 15.3198C39.6401 14.9594 40.0305 14.8161 40.4658 14.9263C40.9782 15.0562 41.3525 15.3639 41.4834 15.8999C41.6099 16.4167 41.5044 16.8912 41.1377 17.2798C40.448 18.011 39.7512 18.7359 38.9775 19.3813C38.7116 19.603 38.4088 19.7297 38.0576 19.7241C37.5325 19.7197 37.0962 19.4256 36.8936 18.9487C36.6914 18.4731 36.8745 17.9402 37.1982 17.6382C37.9746 16.9139 38.7592 16.1933 39.3828 15.3198ZM36.7529 13.6216C37.0754 13.2901 37.4322 13.2408 37.8203 13.4604C38.1808 13.6639 38.4218 14.1209 38.3105 14.4937C38.1438 15.0512 37.7188 15.4124 37.2549 15.7231C37.1779 15.7746 37.0594 15.7637 36.9912 15.7759C36.5623 15.7457 36.2543 15.5686 36.0889 15.2075C35.9275 14.8553 35.9122 14.5081 36.2246 14.2036C36.4119 14.0211 36.5704 13.8089 36.7529 13.6216Z" fill="#0081E0"/>
<path d="M10.2796 9.94526C8.93297 13.3868 8.42575 16.8494 8.92115 20.4935C7.94611 19.9539 7.17675 19.2445 6.31986 18.62C6.17938 18.8572 6.12686 19.0844 6.07216 19.3058C5.96363 19.7439 5.86297 20.1846 5.7842 20.6288C5.74131 20.8716 5.64503 21.0056 5.39427 21.0795C4.5562 21.3277 3.73476 21.6261 2.95184 22.0187C2.64462 22.1727 2.3479 22.3478 1.99823 22.5395C2.28795 20.7727 2.83411 19.1408 3.51332 17.4691C2.31814 17.6971 1.19693 17.9106 0 18.1386C1.03325 15.9465 2.57416 14.2647 4.41834 12.8516C6.15006 11.5242 8.0367 10.4853 10.2804 9.94482L10.2796 9.94526Z" fill="url(#paint0_linear_3076_417)"/>
<path d="M23.5321 25.2349C23.4787 25.3242 23.4639 25.3654 23.4358 25.3938C22.0844 26.7649 20.7269 28.1303 19.3842 29.5097C19.1628 29.7373 18.9825 29.8021 18.6674 29.683C17.6228 29.2879 16.5291 29.2572 15.4324 29.3697C14.4889 29.4664 13.562 29.6581 12.6609 29.9636C12.5948 29.9859 12.5278 30.0279 12.4478 29.9881C12.5073 29.81 12.674 29.7268 12.7961 29.6082C14.2924 28.1548 15.7418 26.6555 17.1799 25.1452C17.4039 24.9102 17.6184 24.8227 17.9422 24.863C19.0556 25.0012 20.1707 25.1233 21.2919 25.1837C22.0188 25.2227 22.7457 25.245 23.5321 25.2345V25.2349Z" fill="url(#paint1_linear_3076_417)"/>
<path d="M38.1719 27.6748C38.3361 27.7441 38.3099 27.9736 38.3213 28.1406C38.3733 28.8993 38.3249 29.6574 38.2344 30.4082C38.0663 31.7986 37.7671 33.1638 37.2734 34.4775C36.5641 36.3649 35.5463 38.0674 34.1797 39.5557C34.1403 39.5986 34.0979 39.6397 34.0537 39.6777C34.0323 39.696 34.0039 39.7071 33.959 39.7324C33.8221 39.6309 33.8113 39.4648 33.793 39.3174C33.6787 38.4085 33.4589 37.5142 33.416 36.5957C33.4108 36.4799 33.4024 36.3577 33.2568 36.3184C32.1953 37.4533 30.9735 38.3893 29.667 39.2207C29.4715 39.3449 29.2848 39.4878 29.0596 39.5596L29.0576 39.5576C29.0577 39.5586 29.0585 39.5595 29.0586 39.5605C28.3737 39.957 27.6908 40.3563 26.9639 40.6758C24.8843 41.5891 22.7255 42.2068 20.4678 42.4873C18.3861 42.7455 16.3131 42.7097 14.2393 42.4082C13.2012 42.2572 12.1766 42.0342 11.1416 41.8701C9.31107 41.58 7.48493 41.6106 5.66797 41.9961C5.37042 42.0591 5.07078 42.114 4.7168 42.1836C4.84021 39.0987 3.78624 36.3151 2.62695 33.5527C2.72409 33.544 2.75958 33.5894 2.7959 33.6318C4.59497 35.7306 6.83638 37.1713 9.42969 38.0859C10.9036 38.6058 12.417 38.9525 13.9697 39.1494C15.3333 39.3223 16.6969 39.3845 18.0684 39.3145C19.5419 39.2392 20.9925 39.0148 22.4258 38.6621C24.2147 38.2223 25.9239 37.5706 27.582 36.7764C27.5852 36.7798 27.5878 36.7838 27.5908 36.7871C27.588 36.7831 27.586 36.7784 27.583 36.7744C28.0586 36.5001 28.5333 36.2233 29.0098 35.9512C29.7158 35.5478 30.3577 35.0513 31.0117 34.5723C31.0943 34.512 31.2311 34.4659 31.1631 34.3115L30.7793 34.1855C29.8954 33.8656 29.0869 33.3729 28.2002 32.8652C29.2135 32.6622 30.0964 32.3482 30.9902 32.0703V32.0693L31.8936 31.6846C32.1934 31.558 32.4951 31.4361 32.8037 31.3311C32.8053 31.3301 32.807 31.3291 32.8086 31.3281V31.3291H32.8096C33.5816 30.8948 34.3842 30.5159 35.126 30.0273C36.0769 29.4015 36.9889 28.7273 37.8037 27.9277C37.9117 27.8218 38.0074 27.6061 38.1719 27.6748Z" fill="url(#paint2_linear_3076_417)"/>
<path d="M35.9785 1.73535C37.2677 0.233571 38.9369 -0.315613 40.8623 0.174805C42.7248 0.649168 43.8751 1.89441 44.29 3.76465C44.7959 6.04516 43.569 8.28755 41.4902 9.16895C40.5543 9.56535 39.5798 9.67745 38.583 9.42285C38.3836 9.37168 38.2327 9.36236 38.0713 9.52832C37.4219 10.1983 36.7552 10.8524 36.1006 11.5176C35.8801 11.7415 35.8869 11.7487 36.084 11.9619C36.4739 12.3842 36.4825 12.3935 36.0566 12.8105C35.3793 13.4735 34.691 14.1251 34.0049 14.7793C33.7528 15.0195 33.7495 15.0158 33.4922 14.7979C33.4371 14.7515 33.3767 14.7107 33.2949 14.6504L32.8682 15.0586C32.7267 15.1946 32.5888 15.3331 32.46 15.4795C31.7301 16.3086 30.8214 16.8547 29.8125 17.2783C28.1788 17.9641 26.4937 18.4587 24.7471 18.7471C24.2177 18.8346 23.6876 18.918 23.1377 19.0068C23.1251 18.8314 23.2546 18.7667 23.3359 18.6836C24.8084 17.1862 26.2862 15.6932 27.7578 14.1953C28.4933 13.4467 29.2176 12.6866 29.9531 11.9375C30.0878 11.8006 30.1466 11.707 29.9639 11.5557C29.0313 10.7819 28.1973 9.90121 27.3115 9.07715C27.1357 8.91356 27.0034 8.84118 26.7461 8.94531C26.1603 9.18188 25.62 9.00978 25.1729 8.59863C24.705 8.16845 24.5657 7.61704 24.7236 7C24.7897 6.74311 24.9143 6.5097 25.085 6.30664C25.6298 5.65903 26.2003 5.03302 26.8291 4.4668C27.2976 4.0448 27.8448 3.85304 28.4834 4.01953C29.1797 4.20115 29.6229 4.72605 29.5879 5.44727C29.5696 5.82823 29.7059 6.06029 29.9736 6.29785C30.8782 7.1013 31.7637 7.92693 32.6582 8.74219C32.9032 8.96574 32.9115 8.96757 33.1377 8.73828C33.7424 8.12618 34.336 7.50354 34.9473 6.89844C35.1134 6.73403 35.0978 6.59285 35.0332 6.39355C34.4752 4.66665 34.8148 3.0907 35.9785 1.73535ZM39.6963 2.64941C38.3987 2.64022 37.4371 3.55548 37.4336 4.80273C37.4308 5.98632 38.4078 6.91527 39.6514 6.91309C40.8275 6.91025 41.7655 5.95232 41.7695 4.74902C41.7735 3.599 40.8445 2.65742 39.6963 2.64941Z" fill="url(#paint3_linear_3076_417)"/>
<defs>
<linearGradient id="paint0_linear_3076_417" x1="5.14022" y1="9.94482" x2="5.14022" y2="22.5395" gradientUnits="userSpaceOnUse">
<stop stop-color="#1F7CFF"/>
<stop offset="1" stop-color="#0B56BF"/>
</linearGradient>
<linearGradient id="paint1_linear_3076_417" x1="17.9899" y1="24.8535" x2="17.9899" y2="30.0046" gradientUnits="userSpaceOnUse">
<stop stop-color="#1F7CFF"/>
<stop offset="1" stop-color="#0B56BF"/>
</linearGradient>
<linearGradient id="paint2_linear_3076_417" x1="20.4848" y1="27.6611" x2="20.4848" y2="42.6594" gradientUnits="userSpaceOnUse">
<stop stop-color="#1F7CFF"/>
<stop offset="1" stop-color="#0B56BF"/>
</linearGradient>
<linearGradient id="paint3_linear_3076_417" x1="33.7702" y1="0" x2="33.7702" y2="19.0068" gradientUnits="userSpaceOnUse">
<stop stop-color="#1F7CFF"/>
<stop offset="1" stop-color="#0B56BF"/>
</linearGradient>
</defs>
</svg>
